<svg width="1920" height="1065" viewBox="0 0 1920 1065" fill="none" xmlns="http://www.w3.org/2000/svg">
<path d="M254.228 930.61C141.275 943.824 4.38326e-05 836 4.38326e-05 836L2.94351e-05 6.11429e-05L1041 6.42062e-05L1858 7.70044e-05L1939.5 5.57985e-05C1939.5 5.57985e-05 1904.1 596.467 1618.21 578.65C1424.07 566.55 1413.5 202.646 1220.02 209.487C1060.64 215.123 1050.84 441.302 896.623 480.991C772.875 512.838 690.083 404.631 568.341 444.252C369.211 509.059 461.699 906.338 254.228 930.61Z" fill="url(#paint0_linear_29_12)" fill-opacity="0.85"/>
<defs>
<linearGradient id="paint0_linear_29_12" x1="241.824" y1="642.06" x2="1507.06" y2="199.29" gradientUnits="userSpaceOnUse">
<stop stop-color="#E86E3A"/>
<stop offset="1" stop-color="#9A3BD3"/>
</linearGradient>
</defs>
</svg>
