<?xml version="1.0" standalone="no"?>
<!DOCTYPE svg PUBLIC "-//W3C//DTD SVG 20010904//EN"
 "http://www.w3.org/TR/2001/REC-SVG-20010904/DTD/svg10.dtd">
<svg version="1.0" xmlns="http://www.w3.org/2000/svg"
 width="512.000000pt" height="512.000000pt" viewBox="0 0 512.000000 512.000000"
 preserveAspectRatio="xMidYMid meet">
<metadata>
Created by potrace 1.14, written by Peter Selinger 2001-2017
</metadata>
<g transform="translate(0.000000,512.000000) scale(0.100000,-0.100000)"
fill="#000000" stroke="none">
<path d="M1200 4559 c-74 -51 -137 -94 -140 -98 -3 -3 -32 -28 -65 -55 -235
-192 -463 -484 -607 -776 -89 -182 -176 -441 -202 -600 -3 -19 -10 -59 -15
-88 -33 -171 -36 -556 -5 -739 19 -116 50 -254 76 -341 210 -711 729 -1280
1415 -1553 174 -69 332 -113 508 -143 139 -23 168 -26 350 -30 149 -4 225 0
365 18 428 56 813 214 1150 472 318 244 540 512 710 859 129 262 200 509 234
815 12 109 14 466 3 520 -3 14 -11 60 -17 103 -14 86 -6 80 -110 77 -160 -4
-316 -48 -442 -124 -150 -89 -378 -269 -543 -427 -205 -197 -360 -291 -562
-341 -133 -32 -351 -30 -487 6 -376 98 -640 397 -684 776 -9 71 -8 231 2 295
40 279 235 538 511 681 73 38 135 57 270 83 65 13 287 7 350 -9 141 -35 263
-88 378 -163 80 -53 104 -72 197 -157 67 -61 64 -62 254 120 54 52 116 112
137 133 l40 38 -31 39 c-144 182 -447 372 -720 454 -242 72 -512 83 -770 33
-64 -12 -208 -59 -288 -93 -333 -143 -578 -371 -727 -679 -80 -165 -131 -374
-136 -560 0 -22 -3 -33 -6 -25 -3 8 -9 17 -12 20 -13 10 -80 148 -115 238 -54
138 -87 264 -115 447 -33 205 -35 559 -6 813 3 28 2 52 -2 52 -4 0 -69 -41
-143 -91z"/>
</g>
</svg>
